
<svg xmlns="http://www.w3.org/2000/svg" fill="#fff" stroke="none" width="35" height="35" viewBox="0 0 24 24"><path d="M2.277.012a1.274 1.274 0 0 1-.215.047C1.527.16 1.132.363.75.746c-.203.2-.355.41-.48.66-.098.192-.145.352-.204.657l-.05.253v9.688c0 7.703.007 9.715.03 9.828.083.402.11.496.192.68.34.726.969 1.234 1.715 1.383.149.03 1.5.035 10.027.043 6.797 0 9.895-.008 9.989-.024a2.46 2.46 0 0 0 1.37-.785c.306-.356.497-.754.571-1.172.016-.098.024-3.242.024-9.977 0-9.492-.004-9.84-.047-10.046a2.806 2.806 0 0 0-.117-.399 2.861 2.861 0 0 0-.422-.668.497.497 0 0 1-.086-.101c0-.028-.356-.313-.492-.395a3.165 3.165 0 0 0-.79-.305l-.218-.054-9.739-.004a1897.26 1897.26 0 0 0-9.746.004Zm18.77 3.398c.012.809-.082 1.75-.305 2.977-.039.218-.101.504-.207.933-.379 1.547-1.058 3.242-1.836 4.575-.066.117-.16.277-.203.347-.125.223-.394.653-.48.774-.243.34-.301.43-.301.48 0 .04.418.469 1.676 1.723l1.675 1.668v2.031c0 1.687-.007 2.039-.035 2.07-.027.04-.203.04-2.043.04h-2.011l-.07-.055c-.036-.032-.798-.79-1.688-1.68-1.078-1.082-1.633-1.625-1.668-1.625a.606.606 0 0 0-.192.102c-.168.12-.836.562-.953.632a8.178 8.178 0 0 0-.164.094 2.357 2.357 0 0 1-.168.098 18.906 18.906 0 0 1-3.457 1.57c-.683.23-1.613.48-2.16.578-.086.012-.2.035-.25.047-.18.04-.727.121-1.309.191-.613.075-1.914.114-1.968.06-.02-.017-.024-.852-.02-2.727l.008-2.696.238-.02c.633-.042.953-.066 1.133-.09.11-.015.285-.034.387-.046.465-.055 1.039-.172 1.554-.313.106-.03.25-.066.325-.085.43-.118 1.52-.551 2-.797.312-.16.867-.47 1.035-.579.25-.16.664-.437.734-.488l.227-.168a2.77 2.77 0 0 0 .18-.136c.007-.012.09-.075.18-.149a12.883 12.883 0 0 0 2.976-3.469c.246-.425.59-1.12.785-1.582.215-.523.492-1.414.621-2 .055-.246.07-.316.094-.472.015-.094.039-.223.05-.29.075-.41.168-1.406.168-1.769 0-.125.004-.234.016-.242.008-.012 1.23-.016 2.719-.012l2.703.008Zm0 0"/></svg>